<?xml version="1.0" encoding="UTF-8"?>
<!DOCTYPE svg PUBLIC "-//W3C//DTD SVG 1.1//EN" "http://www.w3.org/Graphics/SVG/1.1/DTD/svg11.dtd">
<!-- Creator: CorelDRAW -->
<svg xmlns="http://www.w3.org/2000/svg" xml:space="preserve" width="15.6861mm" height="14.7125mm" version="1.1" style="shape-rendering:geometricPrecision; text-rendering:geometricPrecision; image-rendering:optimizeQuality; fill-rule:evenodd; clip-rule:evenodd"
viewBox="0 0 351.49 329.67"
 xmlns:xlink="http://www.w3.org/1999/xlink"
 xmlns:xodm="http://www.corel.com/coreldraw/odm/2003">
 <defs>
  <style type="text/css">
   <![CDATA[
    .fil0 {fill:#0B1054}
   ]]>
  </style>
 </defs>
 <g id="Camada_x0020_1">
  <metadata id="CorelCorpID_0Corel-Layer"/>
  <g id="_1629086134944">
   <g>
    <g>
     <g>
      <g>
       <path class="fil0" d="M312.41 157.26l0 -92.12 -136.67 78.9 -136.67 -78.9 0 0 0 0 0 64.68 -39.07 -22.56 -0 0 0 -64.69 0 0 0 -42.58 0 0 39.07 22.56 0 0 136.67 78.9 136.67 -78.9 0 0 39.07 -22.56 0 0 0 179.82 -39.08 -22.56zm-273.33 -92.12l0 0 0 0z"/>
      </g>
      <g>
       <path class="fil0" d="M39.08 172.41l0 92.12 136.67 -78.9 136.67 78.9 0 0 0 0 0 -64.69 39.07 22.56 0 0 0 64.69 0 0 0 42.58 -0 0 -39.07 -22.56 0 0 -136.67 -78.9 -136.67 78.9 0 0 -39.07 22.56 -0 0 0 -179.82 39.08 22.56zm273.33 92.12l0 0 0 0z"/>
      </g>
     </g>
    </g>
   </g>
  </g>
 </g>
</svg>
