<?xml version="1.0" encoding="UTF-8"?>
<!DOCTYPE svg PUBLIC "-//W3C//DTD SVG 1.1//EN" "http://www.w3.org/Graphics/SVG/1.1/DTD/svg11.dtd">
<!-- Creator: CorelDRAW -->
<svg xmlns="http://www.w3.org/2000/svg" xml:space="preserve" width="68.48mm" height="16.2504mm" version="1.1" style="shape-rendering:geometricPrecision; text-rendering:geometricPrecision; image-rendering:optimizeQuality; fill-rule:evenodd; clip-rule:evenodd"
viewBox="0 0 2774.5 658.39"
 xmlns:xlink="http://www.w3.org/1999/xlink"
 xmlns:xodm="http://www.corel.com/coreldraw/odm/2003">
 <defs>
  <style type="text/css">
   <![CDATA[
    .fil0 {fill:#FFDD19}
    .fil2 {fill:#FBFBFB;fill-rule:nonzero}
    .fil1 {fill:#FFDD19;fill-rule:nonzero}
   ]]>
  </style>
 </defs>
 <g id="Camada_x0020_1">
  <metadata id="CorelCorpID_0Corel-Layer"/>
  <g id="_1626458179424">
   <g>
    <g>
     <path class="fil0" d="M615.78 316.56l0 -181.58 -269.38 155.52 -269.38 -155.52 0 0 0 0 0 127.5 -77.02 -44.47 -0 0 0 -127.5 0 -0 0 -83.93 0 0 77.02 44.47 0 0 269.38 155.52 269.38 -155.52 0 0 77.02 -44.47 0 0 0 354.45 -77.02 -44.47zm-538.76 -181.58l0 0 0 0z"/>
    </g>
    <g>
     <path class="fil0" d="M77.02 346.4l0 181.58 269.38 -155.52 269.38 155.52 0 0 0 0 0 -127.5 77.02 44.47 0 0 0 127.5 0 0 0 83.93 -0 0 -77.02 -44.47 0 0 -269.38 -155.53 -269.38 155.53 0 0 -77.02 44.47 -0 0 0 -354.45 77.02 44.47zm538.76 181.58l0 0 0 0z"/>
    </g>
   </g>
   <path class="fil1" d="M955.51 658.19c24.95,0 43.67,-11.07 54.14,-27.57l0 -43.47 -55.75 0 0 20.73 31.6 0 0 14.29c-6.44,7.65 -17.31,12.28 -29.99,12.28 -22.54,0 -39.45,-17.31 -39.45,-39.85 0,-22.54 16.91,-39.85 39.45,-39.85 16.1,0 26.36,7.05 33.81,15.1l17.11 -15.7c-10.47,-13.48 -27.57,-23.15 -50.92,-23.15 -37.64,0 -65.21,27.57 -65.21,63.6 0,36.03 27.57,63.6 65.21,63.6zm77.28 -1.81l84.73 0 0 -22.74 -59.17 0 0 -27.98 50.11 0 0 -21.74 -50.11 0 0 -28.38 59.17 0 0 -22.74 -84.73 0 0 123.57zm152.56 1.81c28.98,0 48.1,-13.08 48.1,-37.43 0,-23.95 -19.72,-31.6 -39.04,-36.63 -18.52,-4.63 -36.63,-6.24 -36.63,-16.91 0,-9.66 9.86,-13.69 21.53,-13.69 13.08,0 26.37,3.82 36.23,11.27l13.08 -17.51c-12.48,-10.47 -29.18,-16.7 -48.51,-16.7 -25.56,0 -47.9,12.88 -47.9,37.44 0,24.35 21.34,31.6 41.46,36.02 17.51,4.03 34.22,6.24 34.22,17.71 0,9.06 -7.65,13.69 -22.54,13.69 -15.7,0 -29.59,-5.43 -41.46,-13.29l-13.08 17.31c13.48,11.47 33,18.72 54.54,18.72zm87.75 -1.81l25.36 0 0 -100.83 34.21 0 0 -22.74 -93.79 0 0 22.74 34.22 0 0 100.83zm152.35 0l28.17 0 -51.52 -123.57 -27.17 0 -51.73 123.57 27.17 0 9.46 -23.35 56.35 0 9.26 23.35zm-65.21 -138.87l13.69 3.62c1.01,-3.02 3.22,-5.43 7.85,-5.43 6.04,0 11.68,5.43 19.93,5.43 8.65,0 13.89,-5.43 15.9,-14.69l-13.89 -4.02c-0.6,3.42 -3.02,5.23 -7.05,5.23 -6.24,0 -11.27,-5.03 -19.32,-5.03 -10.06,0 -15.1,7.25 -17.11,14.89zm8.46 93.59l17.71 -43.67 2.01 -5.03 2.01 5.03 17.11 43.67 -38.84 0zm152.15 47.3c39.25,0 65.81,-26.97 65.81,-64 0,-36.63 -26.57,-63.4 -65.81,-63.4 -39.25,0 -65.61,26.77 -65.61,63.4 0,37.03 26.16,64 65.61,64zm-39.85 -64c0,-22.54 16.91,-39.85 39.85,-39.85 23.15,0 39.85,17.31 39.85,39.85 0,22.74 -16.51,40.45 -39.85,40.45 -22.94,0 -39.85,-17.71 -39.85,-40.45zm174.9 61.99l25.56 0 0 -123.57 -25.56 0 0 123.57zm54.74 0l25.56 0 0 -83.12 2.21 3.22 59.57 79.9 24.35 0 0 -123.57 -25.36 0 0 83.52c-1.01,-1.41 -1.81,-2.62 -2.62,-3.42l-59.37 -80.1 -24.35 0 0 123.57zm163.22 0l25.36 0 0 -100.83 34.21 0 0 -22.74 -93.79 0 0 22.74 34.22 0 0 100.83zm76.88 0l84.73 0 0 -22.74 -59.17 0 0 -27.98 50.11 0 0 -21.74 -50.11 0 0 -28.38 59.17 0 0 -22.74 -84.73 0 0 123.57zm105.66 0l80.31 0 0 -22.74 -54.74 0 0 -100.83 -25.56 0 0 123.57zm97.01 0l25.56 0 0 -123.57 -25.56 0 0 123.57zm113.31 1.81c24.95,0 43.67,-11.07 54.14,-27.57l0 -43.47 -55.75 0 0 20.73 31.6 0 0 14.29c-6.44,7.65 -17.31,12.28 -29.99,12.28 -22.54,0 -39.45,-17.31 -39.45,-39.85 0,-22.54 16.91,-39.85 39.45,-39.85 16.1,0 26.36,7.05 33.81,15.1l17.11 -15.7c-10.47,-13.48 -27.57,-23.15 -50.92,-23.15 -37.64,0 -65.21,27.57 -65.21,63.6 0,36.03 27.57,63.6 65.21,63.6zm77.28 -1.81l84.73 0 0 -22.74 -59.17 0 0 -27.98 50.11 0 0 -21.74 -50.11 0 0 -28.38 59.17 0 0 -22.74 -84.73 0 0 123.57zm105.66 0l25.56 0 0 -83.12 2.21 3.22 59.57 79.9 24.35 0 0 -123.57 -25.36 0 0 83.52c-1.01,-1.41 -1.81,-2.62 -2.62,-3.42l-59.37 -80.1 -24.35 0 0 123.57zm163.22 0l25.36 0 0 -100.83 34.21 0 0 -22.74 -93.79 0 0 22.74 34.22 0 0 100.83zm76.88 0l84.73 0 0 -22.74 -59.17 0 0 -27.98 50.11 0 0 -21.74 -50.11 0 0 -28.38 59.17 0 0 -22.74 -84.73 0 0 123.57z"/>
   <path class="fil2" d="M1113.18 455.36l73.09 0 100.87 -241.93 8.04 -22.66 0 264.59 113.29 0 0 -448.79 -133.76 0 -117.68 271.9c-2.92,7.31 -4.38,14.62 -7.3,22.66 -2.93,-8.04 -5.12,-15.35 -8.04,-22.66l-116.95 -271.9 -133.76 0 0 448.79 113.29 0 0 -264.59 8.04 22.66 100.87 241.93zm601.55 7.31c143.26,0 239.74,-98.68 239.74,-232.43 0,-132.3 -96.48,-230.24 -239.74,-230.24 -143.99,0 -239.01,97.94 -239.01,230.24 0,133.76 95.02,232.43 239.01,232.43zm-124.25 -232.43c0,-70.16 52.63,-125.72 124.25,-125.72 73.09,0 124.99,55.55 124.99,125.72 0,70.9 -51.9,127.18 -124.99,127.18 -71.63,0 -124.25,-56.28 -124.25,-127.18zm505.8 225.12l113.29 0 0 -347.19 117.68 0 0 -101.6 -347.92 0 0 101.6 116.95 0 0 347.19zm553.31 0l124.26 0 -184.19 -448.79 -119.87 0 -184.92 448.79 121.33 0 29.24 -74.55 186.39 0 27.77 74.55zm-176.89 -171.04l48.98 -127.18 8.04 -20.47 55.55 147.65 -112.56 0z"/>
  </g>
 </g>
</svg>
